<?xml version="1.0" standalone="no"?>
<!DOCTYPE svg PUBLIC "-//W3C//DTD SVG 20010904//EN" "http://www.w3.org/TR/2001/REC-SVG-20010904/DTD/svg10.dtd">
<svg version="1.0" xmlns="http://www.w3.org/2000/svg"
    width="500.000000pt" height="500.000000pt" viewBox="0 0 500.000000 500.000000"
    preserveAspectRatio="xMidYMid meet">

    <g transform="translate(0.000000,500.000000) scale(0.100000,-0.100000)"
        fill="#ffefc2" stroke="none">
        <path
            d="M881 3859 c-146 -29 -251 -154 -251 -301 0 -94 28 -163 91 -227 152
-151 404 -110 499 83 37 75 43 163 15 245 -19 59 -91 143 -144 171 -31 15
-142 42 -160 39 -3 -1 -26 -5 -50 -10z" />
        <path
            d="M1775 3842 c-159 -55 -240 -221 -189 -391 23 -80 118 -173 198 -196
152 -44 305 20 378 157 19 36 23 58 23 138 0 87 -3 100 -30 149 -73 132 -236
193 -380 143z" />
        <path
            d="M2714 3842 c-132 -46 -212 -170 -202 -312 6 -82 34 -144 91 -201 64
-64 115 -84 217 -84 101 0 156 21 219 84 69 69 86 112 86 221 0 87 -3 100 -30
149 -73 132 -235 193 -381 143z" />
        <path
            d="M861 2914 c-69 -18 -112 -45 -156 -96 -132 -155 -81 -395 103 -485
47 -23 70 -28 132 -28 99 1 163 29 229 101 64 70 85 131 79 228 -10 147 -102
254 -246 285 -65 14 -74 13 -141 -5z" />
        <path
            d="M1472 2888 c3 -7 20 -20 39 -29 19 -9 42 -26 52 -37 10 -11 91 -152
180 -314 l162 -293 3 -193 c4 -220 1 -230 -67 -251 -24 -7 -41 -18 -41 -26 0
-13 30 -15 190 -15 164 0 190 2 190 15 0 9 -8 18 -17 21 -94 30 -95 34 -91
265 l3 184 159 290 c87 160 168 301 179 314 12 13 37 30 55 37 17 8 32 21 32
29 0 13 -22 15 -135 15 -112 0 -135 -3 -135 -15 0 -8 17 -19 43 -26 52 -14 67
-25 67 -53 0 -28 -276 -531 -291 -531 -16 0 -289 502 -289 531 0 28 15 39 68
53 25 7 42 18 42 26 0 13 -31 15 -201 15 -156 0 -200 -3 -197 -12z" />
        <path
            d="M3290 2887 c0 -9 8 -18 18 -22 22 -6 42 -45 42 -81 0 -26 -353 -886
-393 -956 -11 -21 -35 -44 -54 -53 -18 -9 -33 -22 -33 -30 0 -12 24 -15 135
-15 113 0 135 2 135 15 0 8 -12 17 -27 21 -82 18 -93 26 -93 65 0 15 19 71 41
123 l41 96 283 0 283 0 41 -97 c59 -140 56 -160 -26 -182 -26 -7 -43 -18 -43
-26 0 -13 30 -15 190 -15 161 0 190 2 190 15 0 8 -16 21 -34 29 -45 19 -42 12
-286 596 -112 267 -211 494 -222 505 -25 27 -188 37 -188 12z m224 -471 c69
-164 123 -303 120 -307 -7 -12 -491 -12 -499 0 -3 6 45 130 106 278 61 147
118 283 125 302 8 19 16 32 18 30 3 -2 61 -139 130 -303z" />
        <path
            d="M861 1974 c-69 -18 -112 -45 -156 -96 -132 -155 -80 -395 103 -485
47 -23 70 -28 132 -27 100 0 164 28 229 100 64 70 85 131 79 228 -10 147 -102
254 -246 285 -65 14 -74 13 -141 -5z" />
        <path
            d="M2650 1889 c-37 -15 -60 -49 -60 -91 0 -53 27 -78 86 -78 60 0 104
40 104 95 0 67 -60 101 -130 74z" />
        <path
            d="M4162 1885 c-21 -9 -38 -27 -48 -50 -28 -68 6 -115 84 -115 87 0 136
97 77 155 -27 28 -64 31 -113 10z" />
    </g>
</svg>