<svg xmlns="http://www.w3.org/2000/svg" xmlns:xlink="http://www.w3.org/1999/xlink" width="113" height="97" viewBox="0 0 113 97">
  <defs>
    <clipPath id="clip-logo">
      <rect width="113" height="97"/>
    </clipPath>
  </defs>
  <g id="logo" clip-path="url(#clip-logo)">
    <rect width="113" height="97" fill="rgba(255,255,255,0)"/>
    <g id="Owens___Minor_2021_logo" data-name="Owens_&amp;_Minor_2021_logo" transform="translate(30 34)">
      <path id="path457" d="M14.593,0A14.6,14.6,0,0,0,.29,11.655H12.874A7.571,7.571,0,0,0,14.8,11.39a8.49,8.49,0,0,1,2.078-.233,8.481,8.481,0,0,1,2.078.233,7.568,7.568,0,0,0,1.931.265H54V.633H46.628L41.136,10.922,35.712.633H28V8.811A14.6,14.6,0,0,0,14.593,0ZM.177,12.295A14.684,14.684,0,0,0,0,14.384H9.465a7.569,7.569,0,0,0,1.931-.265,8.488,8.488,0,0,1,2.078-.234,8.479,8.479,0,0,1,2.078.234,7.577,7.577,0,0,0,1.932.265H54v-2.09H20.893a7.546,7.546,0,0,0-1.932.265,8.476,8.476,0,0,1-2.077.234,8.485,8.485,0,0,1-2.078-.234,7.543,7.543,0,0,0-1.931-.265ZM0,15.024a14.651,14.651,0,0,0,.21,2.089H6.347a7.529,7.529,0,0,0,1.931-.265,8.493,8.493,0,0,1,2.078-.233,8.479,8.479,0,0,1,2.078.233,7.529,7.529,0,0,0,1.931.265H54V15.024H17.484a7.561,7.561,0,0,0-1.931.265,8.484,8.484,0,0,1-2.078.233,8.493,8.493,0,0,1-2.078-.233,7.556,7.556,0,0,0-1.931-.265ZM.34,17.752A14.6,14.6,0,0,0,28,20.385V28.72H34.53V18.468L40.819,28.72h.632L47.669,18.5V28.72H54V17.752H14.366a7.582,7.582,0,0,0-1.932.265,8.456,8.456,0,0,1-2.078.234,8.467,8.467,0,0,1-2.078-.234,7.577,7.577,0,0,0-1.931-.265Z" fill="#8b2233"/>
    </g>
  </g>
</svg>
