<?xml version="1.0" standalone="no"?>
<!DOCTYPE svg PUBLIC "-//W3C//DTD SVG 20010904//EN" "http://www.w3.org/TR/2001/REC-SVG-20010904/DTD/svg10.dtd">
<svg version="1.0" xmlns="http://www.w3.org/2000/svg"
    width="512.000000pt" height="512.000000pt" viewBox="0 0 512.000000 512.000000"
    preserveAspectRatio="xMidYMid meet">

    <g transform="translate(0.000000,512.000000) scale(0.100000,-0.100000)"
        fill="#ffefc2" stroke="none">
        <path
            d="M760 4993 c-300 -35 -545 -242 -631 -533 -20 -68 -22 -102 -26 -382
l-5 -308 2462 0 2462 0 -5 308 c-4 280 -6 314 -26 382 -75 251 -267 441 -518
513 l-78 22 -1800 1 c-990 1 -1816 -1 -1835 -3z m263 -435 c112 -62 136 -214
50 -309 -127 -140 -353 -51 -353 139 0 86 59 173 128 188 15 3 32 7 37 10 23
8 100 -7 138 -28z m803 -3 c26 -15 54 -43 70 -71 23 -39 26 -53 22 -114 -3
-58 -8 -75 -34 -107 -125 -157 -364 -77 -364 123 0 159 167 251 306 169z" />
        <path
            d="M102 2048 l3 -1313 23 -75 c64 -208 200 -369 387 -460 166 -81 -4
-75 2040 -75 1727 0 1824 1 1898 18 210 49 393 197 487 392 80 166 74 43 77
1513 l4 1312 -2461 0 -2461 0 3 -1312z m2591 652 c73 -23 167 -87 210 -143 72
-94 102 -223 77 -328 -64 -273 -351 -418 -596 -302 -172 81 -271 302 -218 484
69 236 296 360 527 289z m-401 -1189 c154 -53 347 -53 497 -1 96 34 139 26
253 -51 124 -84 233 -207 289 -324 66 -137 15 -290 -116 -351 l-50 -24 -615 0
c-597 0 -616 1 -660 21 -132 60 -188 213 -125 347 52 112 175 255 291 338 98
70 139 78 236 45z" />
    </g>
</svg>