<?xml version="1.0" standalone="no"?>
<!DOCTYPE svg PUBLIC "-//W3C//DTD SVG 20010904//EN" "http://www.w3.org/TR/2001/REC-SVG-20010904/DTD/svg10.dtd">
<svg version="1.0" xmlns="http://www.w3.org/2000/svg"
    width="500.000000pt" height="500.000000pt" viewBox="0 0 500.000000 500.000000"
    preserveAspectRatio="xMidYMid meet">

    <g transform="translate(0.000000,500.000000) scale(0.100000,-0.100000)"
        fill="#000000" stroke="none">
        <path
            d="M1216 3984 c-14 -13 -16 -55 -16 -299 l0 -283 -43 -6 c-54 -8 -113
-55 -138 -110 -18 -39 -19 -91 -19 -1077 0 -748 3 -1045 11 -1070 18 -53 58
-99 103 -120 39 -18 94 -19 1386 -19 l1346 0 44 23 c26 13 57 40 75 65 l30 44
3 1070 c2 1056 2 1072 -18 1113 -28 59 -79 85 -164 85 l-66 0 0 133 c0 176 11
167 -193 167 l-157 0 0 133 c0 117 -2 136 -18 150 -17 16 -107 17 -1085 17
-955 0 -1067 -2 -1081 -16z m2084 -184 l0 -100 -859 0 c-768 0 -861 -2 -875
-16 -13 -12 -16 -41 -16 -150 l0 -134 -27 -11 c-40 -15 -83 -58 -104 -104 -17
-37 -19 -72 -19 -447 0 -356 2 -409 16 -422 17 -18 42 -20 64 -6 13 8 16 70
20 426 l5 416 28 24 28 24 288 0 287 0 198 -185 c109 -102 210 -192 226 -200
25 -13 123 -15 685 -15 l655 0 0 -860 c0 -925 1 -903 -49 -930 -27 -14 -2275
-14 -2302 0 -48 26 -49 39 -49 514 0 391 -2 446 -16 460 -8 9 -24 16 -34 16
-10 0 -26 -7 -34 -16 -14 -13 -16 -64 -16 -400 l0 -384 -50 0 -50 0 0 1300 0
1300 1000 0 1000 0 0 -100z m350 -500 l0 -300 -524 0 -523 0 -194 181 c-106
100 -207 190 -223 200 -28 17 -55 19 -283 19 l-253 0 0 100 0 100 1000 0 1000
0 0 -300z m-2450 -1034 c0 -927 2 -1036 16 -1050 11 -12 36 -16 98 -16 l83 0
6 -33 c3 -17 8 -40 12 -49 7 -17 -3 -18 -114 -18 -139 0 -172 11 -190 61 -8
23 -11 330 -11 1046 0 882 2 1018 15 1043 16 32 40 49 68 50 16 0 17 -56 17
-1034z m2682 1017 c16 -14 18 -33 18 -150 l0 -133 -75 0 -75 0 0 150 0 150 57
0 c38 0 62 -5 75 -17z" />
        <path
            d="M2538 2680 c-73 -18 -178 -65 -242 -109 -106 -72 -220 -226 -263
-355 -23 -70 -27 -98 -27 -211 -1 -146 11 -200 71 -320 94 -188 256 -314 468
-366 157 -38 303 -19 465 58 80 39 108 59 181 132 72 72 94 102 132 181 102
209 102 409 0 620 -39 80 -59 108 -132 181 -64 64 -107 96 -167 127 -154 79
-327 101 -486 62z m355 -113 c98 -36 171 -83 240 -157 172 -182 214 -441 107
-664 -35 -74 -109 -172 -119 -159 -4 4 -13 28 -20 53 -19 67 -44 110 -96 168
-55 61 -112 97 -196 123 -138 43 -280 6 -396 -104 -55 -52 -123 -169 -123
-213 0 -39 -17 -36 -55 8 -90 106 -142 270 -132 417 18 271 222 501 487 552
79 14 229 3 303 -24z" />
        <path
            d="M2627 2486 c-102 -38 -152 -115 -145 -225 3 -53 9 -77 31 -109 86
-131 288 -130 375 0 24 37 27 51 27 123 0 72 -3 86 -27 123 -53 80 -173 121
-261 88z" />
        <path
            d="M1416 2284 c-9 -8 -16 -24 -16 -34 0 -10 7 -26 16 -34 8 -9 24 -16
34 -16 43 0 65 54 34 84 -8 9 -24 16 -34 16 -10 0 -26 -7 -34 -16z" />
        <path
            d="M2467 3432 c-22 -24 -21 -45 1 -65 17 -15 68 -17 534 -17 486 0 516
1 531 18 22 24 21 45 -1 65 -17 15 -68 17 -534 17 -486 0 -516 -1 -531 -18z" />
        <path
            d="M2717 3232 c-22 -24 -21 -45 1 -65 17 -15 60 -17 409 -17 365 0 391
1 406 18 22 24 21 45 -1 65 -17 15 -60 17 -409 17 -365 0 -391 -1 -406 -18z" />
    </g>
</svg>